<?xml version="1.0" standalone="no"?>
<!DOCTYPE svg PUBLIC "-//W3C//DTD SVG 20010904//EN"
 "http://www.w3.org/TR/2001/REC-SVG-20010904/DTD/svg10.dtd">
<svg version="1.0" xmlns="http://www.w3.org/2000/svg"
 width="1101.000000pt" height="302.000000pt" viewBox="0 0 1101.000000 302.000000"
 preserveAspectRatio="xMidYMid meet">

<g transform="translate(0.000000,302.000000) scale(0.100000,-0.100000)"
fill="#000000" stroke="none">
<path d="M10191 2768 c-9 -24 -41 -105 -71 -180 l-53 -138 -196 0 c-108 0
-202 4 -209 8 -13 9 1 25 71 76 22 16 37 35 37 48 0 12 -38 59 -99 120 -112
114 -98 112 -203 30 -61 -48 -70 -65 -39 -81 29 -16 163 -179 156 -191 -4 -6
-87 -10 -231 -10 l-224 0 0 -80 0 -80 263 -1 c144 -1 307 -4 362 -8 116 -7
111 2 64 -122 l-31 -79 -117 0 c-65 0 -159 -3 -209 -6 l-92 -7 0 -688 0 -689
73 0 c39 0 77 4 84 8 6 4 15 31 19 60 l7 52 422 0 423 0 7 -41 7 -42 61 7 c33
3 71 6 83 6 l24 0 0 665 0 665 -198 0 c-227 0 -382 9 -382 22 0 5 23 51 52
103 l52 95 363 0 363 0 0 80 0 80 -285 0 c-269 0 -285 1 -285 18 0 25 106 196
153 245 48 52 39 63 -69 82 -126 23 -132 22 -153 -27z m219 -958 l0 -100 -223
0 c-123 0 -318 3 -434 7 l-211 6 -4 56 c-3 31 -3 73 0 94 l4 37 434 0 434 0 0
-100z m-14 -273 c1 -1 5 -44 9 -94 l8 -93 -430 0 -430 0 -7 38 c-8 51 -7 124
2 139 4 6 25 14 47 16 38 5 796 -1 801 -6z m9 -457 l0 -105 -265 -2 c-146 -2
-339 1 -430 5 l-165 7 -3 40 c-2 22 -1 68 3 103 l7 62 426 -2 427 -3 0 -105z"/>
<path d="M3434 2683 c-141 -245 -266 -403 -428 -542 -54 -45 -96 -87 -94 -92
2 -5 34 -45 72 -89 l69 -79 31 17 c46 26 274 257 343 348 l62 82 457 7 c251 4
612 6 800 3 l344 -4 0 96 0 97 -742 7 c-408 3 -744 9 -747 12 -9 8 30 72 67
110 27 27 31 38 22 49 -10 12 -169 75 -190 75 -5 0 -35 -44 -66 -97z"/>
<path d="M7125 2461 l8 -308 -199 -7 c-191 -7 -1071 -25 -1201 -26 l-63 0 0
-116 0 -117 218 7 c119 4 350 11 512 16 162 5 397 10 522 10 l228 0 4 -22 c3
-13 10 -99 16 -193 19 -295 52 -466 130 -687 111 -311 286 -555 461 -642 53
-27 84 -36 121 -36 43 0 54 5 93 41 50 46 60 71 101 257 21 91 25 128 18 140
-13 20 -180 110 -188 101 -3 -3 -17 -49 -30 -102 -23 -94 -38 -127 -57 -127
-17 0 -101 85 -144 145 -157 221 -262 598 -282 1006 l-6 137 84 6 c46 3 179 8
294 11 116 3 231 8 258 11 l47 6 0 105 0 106 -349 -8 -348 -7 -6 24 c-4 12 -7
130 -7 261 0 209 2 243 17 268 26 43 10 49 -135 49 l-124 0 7 -309z"/>
<path d="M1101 2678 c-78 -148 -171 -278 -280 -391 -170 -176 -330 -295 -578
-431 -68 -37 -123 -71 -123 -76 0 -7 59 -97 112 -170 l18 -24 57 28 c73 35
205 114 307 184 60 41 81 50 87 40 5 -7 9 -48 9 -90 l0 -78 600 0 600 0 0 100
0 100 -597 0 -598 1 45 36 c25 20 104 95 175 167 125 126 174 189 287 376 l38
61 99 -118 c168 -200 290 -309 504 -451 150 -99 282 -170 442 -237 l105 -44
14 32 c8 18 30 68 50 111 36 76 36 80 19 96 -10 9 -67 36 -128 59 -211 82
-472 229 -606 341 -118 99 -249 224 -299 285 -48 57 -49 60 -34 83 9 13 12 28
7 32 -8 8 -246 60 -275 60 -8 0 -34 -37 -57 -82z"/>
<path d="M8614 2672 c-23 -15 -58 -42 -78 -60 -44 -39 -57 -16 119 -212 218
-243 200 -226 228 -211 14 7 53 39 88 71 l63 57 -18 27 c-23 35 -341 356 -352
356 -5 0 -27 -12 -50 -28z"/>
<path d="M7554 2604 c-44 -31 -85 -62 -93 -69 -11 -11 2 -30 80 -115 52 -56
108 -118 125 -138 l31 -36 84 66 c114 88 116 91 94 125 -28 43 -213 223 -229
223 -7 0 -49 -25 -92 -56z"/>
<path d="M5970 2490 l0 -120 455 0 455 0 0 120 0 120 -455 0 -455 0 0 -120z"/>
<path d="M3422 2053 l3 -98 663 -3 662 -2 0 100 0 100 -665 0 -666 0 3 -97z"/>
<path d="M6430 1303 c0 -280 -3 -518 -6 -530 -3 -12 -12 -24 -19 -27 -32 -12
-226 -39 -233 -32 -4 4 -7 207 -7 450 0 355 3 446 13 459 25 30 4 37 -109 37
l-109 0 -1 -437 c0 -241 -4 -460 -8 -487 -10 -61 -29 -76 -95 -76 -84 0 -126
-10 -126 -30 0 -21 65 -212 87 -253 l14 -29 23 25 c13 14 31 27 42 30 10 4
244 56 519 117 553 123 711 158 738 166 15 5 17 18 17 99 0 52 -4 96 -10 100
-5 3 -111 -15 -236 -40 -125 -25 -242 -45 -262 -45 l-35 0 6 107 c4 58 7 164
7 235 l0 128 210 0 210 0 0 100 0 100 -212 2 -213 3 1 130 c1 100 5 137 17
162 10 18 17 34 17 38 0 3 -54 5 -120 5 l-120 0 0 -507z"/>
<path d="M3000 1689 l0 -99 553 -1 c303 -1 674 -4 822 -8 l270 -6 7 -85 c4
-47 12 -191 17 -320 11 -235 20 -297 63 -430 44 -136 121 -245 229 -325 102
-75 149 -80 214 -23 49 42 67 82 103 223 43 171 44 180 24 197 -25 22 -156 98
-169 98 -5 0 -17 -34 -26 -75 -25 -111 -41 -145 -70 -145 -63 0 -137 161 -157
341 -6 52 -14 240 -19 417 -5 178 -11 325 -13 327 -2 1 -418 5 -925 8 l-923 5
0 -99z"/>
<path d="M8460 1591 l0 -98 92 -7 c50 -3 128 -6 174 -6 l82 0 7 -72 c3 -40 5
-192 3 -337 l-3 -264 -185 -106 c-114 -65 -186 -113 -188 -124 -4 -20 92 -227
106 -227 11 0 167 125 263 211 42 38 82 69 89 69 7 0 50 -27 96 -60 98 -71
205 -130 294 -161 l65 -23 747 -4 747 -4 10 39 c15 57 30 126 31 139 0 8 -200
13 -712 17 -759 6 -783 8 -910 58 -64 25 -147 78 -203 130 l-45 42 0 443 0
444 -280 0 -280 0 0 -99z"/>
<path d="M4157 1488 c-13 -18 -49 -67 -80 -109 -85 -117 -176 -219 -195 -219
-9 0 -66 30 -127 66 -115 68 -358 194 -372 194 -10 -1 -133 -154 -133 -166 0
-5 53 -38 118 -73 130 -72 276 -160 312 -189 l24 -19 -75 -50 c-175 -118 -327
-200 -537 -288 -130 -54 -125 -42 -68 -166 53 -116 50 -113 122 -89 89 30 328
149 436 217 51 32 136 91 188 129 149 111 127 107 210 39 39 -32 125 -109 190
-172 65 -62 122 -113 128 -113 17 0 154 179 149 194 -6 15 -168 163 -279 255
-43 35 -78 71 -78 80 0 18 148 198 243 295 55 57 57 60 40 79 -23 24 -173 137
-184 137 -4 0 -19 -15 -32 -32z"/>
<path d="M520 870 l0 -531 98 3 97 3 3 30 c1 17 5 49 8 73 l5 42 587 -2 587
-3 5 -50 5 -50 103 -3 102 -3 0 511 0 510 -800 0 -800 0 0 -530z m1384 308 c8
-31 8 -282 0 -396 l-7 -92 -582 0 -582 0 -6 165 c-3 91 -3 206 0 255 l6 90
582 0 583 0 6 -22z"/>
</g>
</svg>
